<?xml version="1.0" encoding="UTF-8" standalone="no"?>
<svg
   viewBox="0 0 48 60"
   x="0px"
   y="0px"
   version="1.1"
   id="svg20"
   sodipodi:docname="preview-inverse.svg"
   inkscape:version="1.1.2 (0a00cf5339, 2022-02-04)"
   xmlns:inkscape="http://www.inkscape.org/namespaces/inkscape"
   xmlns:sodipodi="http://sodipodi.sourceforge.net/DTD/sodipodi-0.dtd"
   xmlns="http://www.w3.org/2000/svg"
   xmlns:svg="http://www.w3.org/2000/svg">
  <defs
     id="defs24" />
  <sodipodi:namedview
     id="namedview22"
     pagecolor="#ffffff"
     bordercolor="#666666"
     borderopacity="1.0"
     inkscape:pageshadow="2"
     inkscape:pageopacity="0.0"
     inkscape:pagecheckerboard="0"
     showgrid="false"
     inkscape:zoom="11.983333"
     inkscape:cx="23.991656"
     inkscape:cy="30.000001"
     inkscape:window-width="2560"
     inkscape:window-height="1544"
     inkscape:window-x="0"
     inkscape:window-y="28"
     inkscape:window-maximized="1"
     inkscape:current-layer="svg20" />
  <g
     id="g14"
     transform="translate(0,6)"
     style="stroke:#fefefe;stroke-opacity:1;fill:#ffffff;fill-opacity:1">
    <path
       d="M 3,13 A 1,1 0 0 0 4,12 V 7 H 9 A 1,1 0 0 0 9,5 H 3 A 1,1 0 0 0 2,6 v 6 a 1,1 0 0 0 1,1 z"
       id="path2"
       style="stroke:#fefefe;stroke-opacity:1;fill:#ffffff;fill-opacity:1" />
    <path
       d="m 45,5 h -6 a 1,1 0 0 0 0,2 h 5 v 5 a 1,1 0 0 0 2,0 V 6 A 1,1 0 0 0 45,5 Z"
       id="path4"
       style="stroke:#fefefe;stroke-opacity:1;fill:#ffffff;fill-opacity:1" />
    <path
       d="M 9,41 H 4 v -5 a 1,1 0 0 0 -2,0 v 6 a 1,1 0 0 0 1,1 h 6 a 1,1 0 0 0 0,-2 z"
       id="path6"
       style="stroke:#fefefe;stroke-opacity:1;fill:#ffffff;fill-opacity:1" />
    <path
       d="m 45,35 a 1,1 0 0 0 -1,1 v 5 h -5 a 1,1 0 0 0 0,2 h 6 a 1,1 0 0 0 1,-1 v -6 a 1,1 0 0 0 -1,-1 z"
       id="path8"
       style="stroke:#fefefe;stroke-opacity:1;fill:#ffffff;fill-opacity:1" />
    <path
       d="m 43.91,24.42 a 1,1 0 0 0 0,-0.84 C 43.64,23 37.15,9.43 24,9.43 10.85,9.43 4.36,23 4.09,23.58 a 1,1 0 0 0 0,0.84 C 4.36,25 10.85,38.57 24,38.57 37.15,38.57 43.64,25 43.91,24.42 Z M 24,36.57 C 13.37,36.57 7.31,26.24 6.12,24 7.31,21.76 13.37,11.43 24,11.43 34.63,11.43 40.69,21.76 41.88,24 40.69,26.24 34.63,36.57 24,36.57 Z"
       id="path10"
       style="stroke:#fefefe;stroke-opacity:1;fill:#ffffff;fill-opacity:1" />
    <path
       d="m 24,15 a 9,9 0 1 0 9,9 9,9 0 0 0 -9,-9 z m 0,16 a 7,7 0 1 1 7,-7 7,7 0 0 1 -7,7 z"
       id="path12"
       style="stroke:#fefefe;stroke-opacity:1;fill:#ffffff;fill-opacity:1" />
  </g>
</svg>
